<?xml version="1.0" standalone="no"?><!DOCTYPE svg PUBLIC "-//W3C//DTD SVG 1.1//EN" "http://www.w3.org/Graphics/SVG/1.1/DTD/svg11.dtd"><svg t="1552303522197" class="icon" style="" viewBox="0 0 1024 1024" version="1.1" xmlns="http://www.w3.org/2000/svg" p-id="2494" xmlns:xlink="http://www.w3.org/1999/xlink" width="200" height="200"><defs><style type="text/css"></style></defs><path d="M96 224h832c19.2 0 32 12.8 32 32s-12.8 32-32 32H96c-19.2 0-32-12.8-32-32s12.8-32 32-32z m320 192h512c19.2 0 32 12.8 32 32s-12.8 32-32 32H416c-19.2 0-32-12.8-32-32s12.8-32 32-32zM96 608h832c19.2 0 32 12.8 32 32s-12.8 32-32 32H96c-19.2 0-32-12.8-32-32s12.8-32 32-32z m320 192h512c19.2 0 32 12.8 32 32s-12.8 32-32 32H416c-19.2 0-32-12.8-32-32s12.8-32 32-32z" p-id="2495"></path><path d="M96 224h832c19.2 0 32 12.8 32 32s-12.8 32-32 32H96c-19.2 0-32-12.8-32-32s12.8-32 32-32z m320 192h512c19.2 0 32 12.8 32 32s-12.8 32-32 32H416c-19.2 0-32-12.8-32-32s12.8-32 32-32zM96 608h832c19.2 0 32 12.8 32 32s-12.8 32-32 32H96c-19.2 0-32-12.8-32-32s12.8-32 32-32z m320 192h512c19.2 0 32 12.8 32 32s-12.8 32-32 32H416c-19.2 0-32-12.8-32-32s12.8-32 32-32z" p-id="2496"></path></svg>