<?xml version="1.0" standalone="no"?><!DOCTYPE svg PUBLIC "-//W3C//DTD SVG 1.1//EN" "http://www.w3.org/Graphics/SVG/1.1/DTD/svg11.dtd"><svg t="1555696662985" class="icon" style="" viewBox="0 0 1024 1024" version="1.1" xmlns="http://www.w3.org/2000/svg" p-id="3575" xmlns:xlink="http://www.w3.org/1999/xlink" width="200" height="200"><defs><style type="text/css"></style></defs><path d="M810.666667 128H213.333333c-46.933333 0-85.333333 38.4-85.333333 85.333333v597.333334c0 46.933333 38.4 85.333333 85.333333 85.333333h597.333334c46.933333 0 85.333333-38.4 85.333333-85.333333V213.333333c0-46.933333-38.4-85.333333-85.333333-85.333333z m21.333333 661.333333c0 23.466667-19.2 42.666667-42.666667 42.666667H234.666667c-23.466667 0-42.666667-19.2-42.666667-42.666667V234.666667c0-23.466667 19.2-42.666667 42.666667-42.666667h554.666666c23.466667 0 42.666667 19.2 42.666667 42.666667v554.666666z" fill="#0171F1" p-id="3576"></path><path d="M736 533.333333h-448c-17.066667 0-32-14.933333-32-32s14.933333-32 32-32h448c17.066667 0 32 14.933333 32 32s-14.933333 32-32 32z" fill="#55ABE5" p-id="3577"></path><path d="M554.666667 288v448c0 17.066667-14.933333 32-32 32s-32-14.933333-32-32v-448c0-17.066667 14.933333-32 32-32s32 14.933333 32 32z" fill="#55ABE5" p-id="3578"></path></svg>
