<?xml version="1.0" standalone="no"?><!DOCTYPE svg PUBLIC "-//W3C//DTD SVG 1.1//EN" "http://www.w3.org/Graphics/SVG/1.1/DTD/svg11.dtd"><svg t="1551434706663" class="icon" style="" viewBox="0 0 1024 1024" version="1.1" xmlns="http://www.w3.org/2000/svg" p-id="7597" xmlns:xlink="http://www.w3.org/1999/xlink" width="200" height="200"><defs><style type="text/css"></style></defs><path d="M491.692488 471.386l-81.225953 0 0 81.225953 81.225953 0L491.692488 471.386zM491.692488 613.532441l-81.225953 0 0 81.225953 81.225953 0L491.692488 613.532441zM613.531418 755.677858l-81.225953 0 0 81.225953 81.225953 0L613.531418 755.677858zM613.531418 613.532441l-81.225953 0 0 81.225953 81.225953 0L613.531418 613.532441zM857.210299 471.386l-81.226976 0 0 81.225953 81.225953 0L857.210299 471.386 857.210299 471.386zM857.210299 613.532441l-81.226976 0 0 81.225953 81.225953 0L857.210299 613.532441 857.210299 613.532441zM735.370347 471.386l-81.225953 0 0 81.225953 81.225953 0L735.370347 471.386zM735.370347 613.532441l-81.225953 0 0 81.225953 81.225953 0L735.370347 613.532441zM613.531418 471.386l-81.225953 0 0 81.225953 81.225953 0L613.531418 471.386zM248.01463 755.677858l-81.225953 0 0 81.225953 81.225953 0L248.01463 755.677858zM248.01463 471.386l-81.225953 0 0 81.225953 81.225953 0L248.01463 471.386zM248.01463 613.532441l-81.225953 0 0 81.225953 81.225953 0L248.01463 613.532441zM877.515764 146.482189 796.289812 146.482189 796.289812 85.562724c0-11.205203-9.083889-20.306488-20.306488-20.306488-11.223622 0-20.306488 9.101285-20.306488 20.306488l0 60.919465L268.321118 146.482189 268.321118 85.562724c0-11.205203-9.083889-20.306488-20.306488-20.306488-11.223622 0-20.306488 9.101285-20.306488 20.306488l0 60.919465-81.225953 0c-44.856627 0-81.225953 36.369326-81.225953 81.246419l0 121.818463 0 40.612976 0 487.35674c0 44.856627 36.369326 81.225953 81.225953 81.225953l731.034599 0c44.856627 0 81.225953-36.369326 81.225953-81.225953L958.74274 390.160047l0-40.612976L958.74274 227.728608C958.74274 182.851515 922.373415 146.482189 877.515764 146.482189M918.129764 877.516788c0 22.418592-18.205641 40.612976-40.612976 40.612976L146.481166 918.129764c-22.408359 0-40.612976-18.194384-40.612976-40.612976L105.868189 390.160047l812.260551 0L918.129764 877.516788 918.129764 877.516788zM918.129764 349.547071 105.868189 349.547071 105.868189 227.728608c0-22.439058 18.204617-40.633443 40.612976-40.633443l81.225953 0 0 60.919465c0 11.233855 9.082866 20.306488 20.306488 20.306488 11.222599 0 20.306488-9.072633 20.306488-20.306488l0-60.919465 487.35674 0 0 60.919465c0 11.233855 9.082866 20.306488 20.306488 20.306488 11.222599 0 20.306488-9.072633 20.306488-20.306488l0-60.919465 81.225953 0c22.407336 0 40.612976 18.194384 40.612976 40.633443L918.129764 349.547071 918.129764 349.547071zM369.853559 613.532441 288.627606 613.532441l0 81.225953 81.225953 0L369.853559 613.532441zM369.853559 471.386 288.627606 471.386l0 81.225953 81.225953 0L369.853559 471.386zM369.853559 755.677858 288.627606 755.677858l0 81.225953 81.225953 0L369.853559 755.677858zM491.692488 755.677858l-81.225953 0 0 81.225953 81.225953 0L491.692488 755.677858z" p-id="7598"></path></svg>