<?xml version="1.0" standalone="no"?><!DOCTYPE svg PUBLIC "-//W3C//DTD SVG 1.1//EN" "http://www.w3.org/Graphics/SVG/1.1/DTD/svg11.dtd"><svg t="1550819488116" class="icon" style="" viewBox="0 0 1024 1024" version="1.1" xmlns="http://www.w3.org/2000/svg" p-id="2285" xmlns:xlink="http://www.w3.org/1999/xlink" width="200" height="200"><defs><style type="text/css"></style></defs><path d="M298.666667 810.666667 298.666667 725.333333 384 725.333333 384 810.666667 298.666667 810.666667M469.333333 810.666667 469.333333 725.333333 554.666667 725.333333 554.666667 810.666667 469.333333 810.666667M640 810.666667 640 725.333333 725.333333 725.333333 725.333333 810.666667 640 810.666667M298.666667 640 298.666667 554.666667 384 554.666667 384 640 298.666667 640M469.333333 640 469.333333 554.666667 554.666667 554.666667 554.666667 640 469.333333 640M640 640 640 554.666667 725.333333 554.666667 725.333333 640 640 640M298.666667 469.333333 298.666667 384 384 384 384 469.333333 298.666667 469.333333M469.333333 469.333333 469.333333 384 554.666667 384 554.666667 469.333333 469.333333 469.333333M640 469.333333 640 384 725.333333 384 725.333333 469.333333 640 469.333333M298.666667 298.666667 298.666667 213.333333 384 213.333333 384 298.666667 298.666667 298.666667M469.333333 298.666667 469.333333 213.333333 554.666667 213.333333 554.666667 298.666667 469.333333 298.666667M640 298.666667 640 213.333333 725.333333 213.333333 725.333333 298.666667 640 298.666667Z" p-id="2286"></path></svg>