<?xml version="1.0" standalone="no"?><!DOCTYPE svg PUBLIC "-//W3C//DTD SVG 1.1//EN" "http://www.w3.org/Graphics/SVG/1.1/DTD/svg11.dtd"><svg t="1551844811207" class="icon" style="" viewBox="0 0 1024 1024" version="1.1" xmlns="http://www.w3.org/2000/svg" p-id="2056" xmlns:xlink="http://www.w3.org/1999/xlink" width="200" height="200"><defs><style type="text/css"></style></defs><path d="M1021.568 590.56L893.504 110.368A64.16 64.16 0 0 0 832 64H192c-28.48 0-53.76 19.072-61.504 46.368L2.432 590.56A64.576 64.576 0 0 0 0 608v224a128 128 0 0 0 128 128h768a128 128 0 0 0 128-128v-224c0-5.76-0.8-11.616-2.432-17.44zM960 832c0 35.264-28.736 64-64 64H128c-35.296 0-64-28.736-64-64v-224L192.032 127.968h639.904L960 608v224z" fill="#333333" p-id="2057"></path><path d="M759.744 192H264.256c-14.496 0-27.2 9.76-30.944 23.776l-110.24 384A32 32 0 0 0 153.984 640H300.16l46.304 92.64A64.096 64.096 0 0 0 403.744 768h216.512c24.256 0 46.368-13.696 57.248-35.36L723.808 640h146.176a32 32 0 0 0 30.944-40.256l-110.24-384A32 32 0 0 0 759.744 192z m17.248 384h-53.184c-24.384 0-46.304 13.504-57.248 35.36L620.256 704h-216.512l-46.304-92.64A63.648 63.648 0 0 0 300.192 576H170.688L264.256 224h495.488l93.568 352h-76.32z" fill="#333333" p-id="2058"></path></svg>