<?xml version="1.0" standalone="no"?><!DOCTYPE svg PUBLIC "-//W3C//DTD SVG 1.1//EN" "http://www.w3.org/Graphics/SVG/1.1/DTD/svg11.dtd"><svg t="1551839947753" class="icon" style="" viewBox="0 0 1024 1024" version="1.1" xmlns="http://www.w3.org/2000/svg" p-id="2106" xmlns:xlink="http://www.w3.org/1999/xlink" width="200" height="200"><defs><style type="text/css"></style></defs><path d="M517.326 376.792q-52.208 0-89.499 37.291-37.291 37.291-37.291 90.99 0 53.699 37.291 90.99 37.291 37.291 89.499 37.291 52.953 0 90.245-37.291 37.291-37.291 37.291-90.99 0-53.699-37.291-90.99-37.291-37.291-90.245-37.291zM517.326 602.031q-39.529 0-67.87-28.341t-28.341-68.616q0-40.274 28.341-68.616t67.87-28.341q40.274 0 68.616 28.341 28.341 28.341 28.341 68.616 0 40.274-28.341 68.616-28.341 28.341-68.616 28.341zM896.95 456.595q-0.746-9.696-7.458-16.408t-16.408-8.95q-64.887-13.425-100.686-73.837-34.308-59.666-14.171-123.807 5.967-20.137-10.442-32.816-38.783-29.087-82.786-48.479-20.137-8.204-34.308 7.458-45.495 49.97-113.365 49.97-67.124 0-112.619-49.97-8.95-10.442-21.629-10.442-5.967 0-13.425 2.983-41.766 17.9-76.074 43.258-2.237 1.492-5.967 5.221-8.95 5.967-11.933 14.916-2.983 9.696 0 17.9 0 0.746 0.746 2.237 0.746 1.492 0.746 2.983 0.746 1.492 1.492 3.729 0 2.983 0.746 4.475 12.679 61.158-16.408 110.382-34.308 58.92-100.686 72.345-19.391 4.475-23.866 25.358-2.983 23.866-2.983 46.987 0 24.612 2.983 48.479 0.746 9.696 7.458 16.408 6.712 7.458 16.408 9.696 64.887 13.425 100.686 73.837 34.308 59.666 14.171 123.061-5.967 20.883 10.442 32.816 38.783 29.833 82.041 48.479 7.458 2.983 13.425 2.983 12.679 0 21.629-10.442 45.495-49.224 112.619-49.224 67.87 0 113.365 49.224 14.171 15.662 34.308 7.458 49.224-20.883 82.786-48.479 16.408-11.933 10.442-32.816-20.883-65.632 14.171-123.061 32.070-57.428 100.686-73.837 19.391-4.475 23.866-26.104 2.983-22.375 2.983-46.241 0-23.121-2.983-47.733zM866.371 537.89q0 10.442-11.187 12.679-73.837 21.629-109.636 85.77-38.037 64.141-19.391 137.232 2.237 10.442-5.967 16.408-29.087 20.883-57.428 33.562-9.696 3.729-16.408-2.983-52.208-52.208-129.027-52.208-73.837 0-128.282 52.208-4.475 4.475-9.696 4.475-2.983 0-6.712-1.492-28.341-12.679-57.428-33.562-8.204-5.967-5.967-16.408 18.646-73.091-19.391-137.232-38.037-64.887-109.636-85.77-8.95-1.492-11.187-12.679-1.492-11.187-1.492-32.816 0-21.629 1.492-32.816 0-10.442 11.187-12.679 73.837-21.629 109.636-85.77 38.037-64.141 19.391-137.232-2.237-10.442 5.967-16.408 29.087-20.883 57.428-33.562 9.696-3.729 16.408 2.983 52.208 52.208 128.282 52.208 74.582 0 129.027-52.208 4.475-4.475 9.696-4.475 2.983 0 6.712 1.492 28.341 12.679 57.428 33.562 8.204 5.967 5.967 16.408-18.646 73.091 19.391 137.232 38.037 64.887 109.636 85.77 8.95 1.492 11.187 12.679 1.492 11.187 1.492 32.816 0 2.983 0 6.712 0 9.696-1.492 26.104z" p-id="2107"></path></svg>