<?xml version="1.0" standalone="no"?><!DOCTYPE svg PUBLIC "-//W3C//DTD SVG 1.1//EN" "http://www.w3.org/Graphics/SVG/1.1/DTD/svg11.dtd"><svg t="1552306459363" class="icon" style="" viewBox="0 0 1024 1024" version="1.1" xmlns="http://www.w3.org/2000/svg" p-id="3614" xmlns:xlink="http://www.w3.org/1999/xlink" width="200" height="200"><defs><style type="text/css"></style></defs><path d="M836.855172 0v217.158621h132.413794z" fill="#368FE7" p-id="3615"></path><path d="M969.268966 296.606897V247.172414h-167.724138V0H54.731034v1024H971.034483l-1.765517-727.393103z m-437.848276 1.765517l82.97931-111.227586-74.151724-104.165518h38.841379L617.931034 139.475862c7.062069 10.593103 12.358621 17.655172 15.889656 24.717241 5.296552-7.062069 8.827586-14.124138 15.889655-22.951724l44.137931-58.262069h35.310345L653.241379 185.37931l82.979311 114.758621h-38.84138l-54.731034-75.917241c-1.765517-3.531034-5.296552-7.062069-7.062069-12.358621-3.531034 7.062069-7.062069 10.593103-8.827586 14.124138l-54.731035 75.917241H529.655172l1.765518-3.531034z m-67.089656-74.151724c-3.531034-5.296552-10.593103-8.827586-19.420689-12.358621-5.296552-1.765517-17.655172-5.296552-38.841379-10.593103-19.42069-5.296552-33.544828-8.827586-42.372414-14.124138-10.593103-5.296552-17.655172-12.358621-22.951724-21.186207-5.296552-8.827586-7.062069-17.655172-7.062069-28.248276 0-10.593103 3.531034-21.186207 8.827586-31.779311 7.062069-8.827586 15.889655-17.655172 28.248276-22.951724 12.358621-5.296552 24.717241-7.062069 40.606896-7.062069 15.889655 0 30.013793 1.765517 42.372414 7.062069 12.358621 5.296552 22.951724 12.358621 28.248276 22.951724 7.062069 10.593103 10.593103 21.186207 10.593103 35.310345v1.765518l-30.013793 1.765517v-1.765517c-1.765517-12.358621-7.062069-22.951724-14.124138-30.013794-8.827586-7.062069-21.186207-10.593103-37.075862-10.593103-15.889655 0-28.248276 3.531034-37.075862 8.827586-7.062069 5.296552-10.593103 12.358621-10.593103 21.186207 0 7.062069 1.765517 12.358621 7.062069 17.655173 5.296552 5.296552 19.42069 10.593103 42.372413 14.124137 22.951724 5.296552 38.841379 10.593103 47.668966 14.124138 12.358621 5.296552 22.951724 14.124138 28.248276 22.951725 5.296552 8.827586 8.827586 19.42069 8.827586 31.77931s-3.531034 22.951724-10.593103 33.544827c-7.062069 10.593103-15.889655 17.655172-28.248276 24.717242-12.358621 5.296552-26.482759 8.827586-42.372414 8.827586-19.42069 0-37.075862-3.531034-49.434483-8.827586-14.124138-5.296552-24.717241-14.124138-31.77931-26.482759-7.062069-12.358621-12.358621-24.717241-12.358621-38.841379v-1.765517l30.013793-1.765518v1.765518c1.765517 10.593103 3.531034 19.42069 8.827586 26.482758 5.296552 7.062069 10.593103 12.358621 21.186207 15.889655 8.827586 3.531034 21.186207 7.062069 31.779311 7.062069 10.593103 0 19.42069-1.765517 28.248276-5.296551 8.827586-3.531034 14.124138-7.062069 17.655172-12.358621 3.531034-5.296552 5.296552-10.593103 5.296552-17.655172 3.531034-3.531034 1.765517-8.827586-1.765518-14.124138z m-310.731034 14.124138l28.248276-3.531035v1.765517c0 15.889655 3.531034 26.482759 8.827586 31.779311 5.296552 5.296552 12.358621 8.827586 21.186207 8.827586 7.062069 0 12.358621-1.765517 17.655172-5.296552 5.296552-3.531034 8.827586-7.062069 10.593104-12.358621 1.765517-5.296552 3.531034-14.124138 3.531034-26.482758V82.97931h31.779311v148.303449c0 17.655172-1.765517 31.77931-7.062069 42.372413-5.296552 10.593103-12.358621 17.655172-21.186207 22.951725-8.827586 5.296552-21.186207 8.827586-33.544828 8.827586-19.42069 0-33.544828-5.296552-44.137931-17.655173-12.358621-10.593103-17.655172-26.482759-15.889655-49.434482z m798.013793 766.234482H72.386207V388.413793h879.227586v616.165517z" fill="#368FE7" p-id="3616"></path><path d="M367.227586 722.096552h42.372414c33.544828 1.765517 61.793103-8.827586 84.744828-28.248276 22.951724-19.42069 33.544828-45.903448 33.544827-77.682759 0-31.77931-8.827586-56.496552-28.248276-72.386207-19.42069-17.655172-45.903448-24.717241-81.213793-24.717241h-91.806896v324.855172h42.372413v-121.820689z m0-165.958621h42.372414c49.434483 0 74.151724 21.186207 74.151724 63.558621 0 21.186207-7.062069 38.841379-19.42069 49.434482s-33.544828 17.655172-58.262068 17.655173h-38.84138v-130.648276zM674.427586 831.558621c17.655172-12.358621 26.482759-28.248276 26.482759-49.434483 0-15.889655-5.296552-28.248276-14.124138-38.841379s-26.482759-21.186207-52.965517-30.013793c-21.186207-8.827586-33.544828-14.124138-38.84138-19.42069-5.296552-5.296552-8.827586-12.358621-8.827586-21.186207s3.531034-17.655172 12.358621-22.951724c8.827586-5.296552 19.42069-8.827586 31.77931-8.827586 21.186207 0 42.372414 5.296552 58.262069 17.655172v-38.841379c-17.655172-7.062069-35.310345-10.593103-54.731034-10.593104-24.717241 0-47.668966 7.062069-63.558621 19.42069-17.655172 12.358621-26.482759 28.248276-26.482759 49.434483 0 14.124138 3.531034 26.482759 12.358621 37.075862 7.062069 10.593103 24.717241 21.186207 49.434483 30.013793 21.186207 8.827586 35.310345 14.124138 42.372414 21.186207 7.062069 5.296552 10.593103 12.358621 10.593103 22.951724 0 21.186207-15.889655 31.77931-47.668965 31.77931-24.717241 0-45.903448-7.062069-67.089656-22.951724v42.372414c17.655172 8.827586 38.841379 14.124138 63.558621 14.124138 28.248276-5.296552 49.434483-10.593103 67.089655-22.951724z" fill="#368FE7" p-id="3617"></path></svg>