<?xml version="1.0" standalone="no"?><!DOCTYPE svg PUBLIC "-//W3C//DTD SVG 1.1//EN" "http://www.w3.org/Graphics/SVG/1.1/DTD/svg11.dtd"><svg t="1551426301642" class="icon" style="" viewBox="0 0 1024 1024" version="1.1" xmlns="http://www.w3.org/2000/svg" p-id="11457" xmlns:xlink="http://www.w3.org/1999/xlink" width="200" height="200"><defs><style type="text/css"></style></defs><path d="M256.387879 729.341414h24.694949l8.145455-8.145454V298.020202v-8.016162H272.549495l-5.688889 2.327273c-8.791919 8.662626-17.19596 16.549495-25.212121 23.660606-8.274747 7.240404-16.808081 13.834343-25.341414 19.911111-8.791919 6.206061-17.842424 11.636364-26.89293 16.420202-9.438384 4.913131-19.652525 9.309091-30.513131 13.317172l-5.30101 7.628283v35.814141l10.989899-4.137373c19.006061-7.111111 36.848485-15.515152 53.39798-25.082829 10.989899-6.335354 21.074747-13.575758 30.513131-21.462626v362.925253l7.886869 8.016161z m24.694949-431.321212h-8.145454 8.145454zM524.024242 481.616162c-7.369697 9.69697-15.90303 18.876768-25.470707 27.280808-10.343434 9.050505-21.20404 17.842424-32.323232 26.375757-4.654545 3.749495-27.539394 21.721212-33.486869 26.375758-9.955556 7.757576-19.264646 15.773737-27.927272 23.919192-8.145455 7.628283-15.515152 15.515152-21.979798 23.789899-6.464646 8.274747-11.765657 16.937374-16.032324 25.987879-4.39596 9.309091-7.628283 19.393939-9.696969 30.383838-2.068687 10.731313-2.973737 22.884848-2.973738 36.460606v19.393939l8.145455 8.145455h219.410101l8.145454-8.145455v-24.30707l-8.145454-8.145455H397.187879c0.258586-11.377778 1.810101-21.333333 4.525252-29.866667 2.973737-9.438384 8.016162-18.747475 14.99798-27.797979 6.981818-9.179798 16.420202-18.876768 28.185859-29.090909 11.636364-9.955556 26.246465-21.591919 43.959596-34.909091 13.187879-10.214141 25.729293-20.428283 37.753535-30.642425 12.282828-10.472727 23.014141-21.979798 32.193939-34.521212 9.309091-12.541414 16.678788-26.763636 21.979798-42.149495 5.430303-15.644444 8.016162-33.486869 8.016162-53.397979 0-17.066667-2.585859-32.711111-7.757576-46.804041-5.171717-14.092929-12.670707-26.246465-22.367677-36.331313-9.826263-10.084848-21.462626-17.842424-35.038383-23.272727-13.446465-5.559596-28.573737-8.274747-45.123233-8.274748-19.393939 0-38.141414 3.749495-56.371717 10.989899-17.842424 7.240404-34.521212 17.19596-49.907071 29.866667l-2.973737 6.206061V389.171717l13.575758-12.8c14.739394-13.834343 29.866667-24.694949 45.123232-32.452525 14.868687-7.49899 30.254545-11.248485 46.416162-11.248485 23.40202 0 41.115152 6.723232 53.656565 20.169697 12.670707 13.446465 19.006061 32.711111 19.006061 58.052525 0 14.99798-2.068687 28.056566-6.206061 39.305051-4.137374 11.377778-9.69697 21.850505-16.808081 31.418182zM797.99596 502.30303c38.012121-19.652525 57.406061-55.078788 57.40606-105.244444 0-31.288889-9.826263-56.759596-29.349495-76.153535-19.523232-19.264646-45.89899-28.961616-78.351515-28.961617-25.858586 0-53.785859 8.145455-84.040404 24.177778L659.393939 323.232323v43.70101l12.670707-8.662626c25.341414-17.325253 49.260606-25.858586 71.757576-25.858586 23.272727 0 40.339394 6.335354 51.717172 18.747475 11.636364 12.541414 17.454545 30.125253 17.454545 53.010101 0 26.375758-8.145455 46.416162-24.436363 60.509091-16.420202 14.222222-40.856566 21.591919-73.567677 21.591919h-26.505051l-8.145454 8.145455v24.30707l8.145454 8.145455h29.737374c35.684848 0 62.836364 7.369697 81.454546 21.979798 18.230303 14.092929 27.280808 35.038384 27.280808 63.224242 0 25.341414-8.016162 45.381818-23.919192 60.89697-16.032323 15.385859-38.4 23.272727-67.620202 23.272727-24.565657 0-50.941414-8.791919-79.256566-26.634343l-12.412121-7.757576v44.864647l4.137374 7.111111c27.668687 15.256566 56.759596 23.014141 87.014141 23.014141 39.305051 0 71.49899-11.765657 96.581818-35.684848 25.082828-23.531313 37.624242-54.820202 37.624243-93.220202 0-30.125253-8.791919-55.59596-26.246465-75.765657-12.153535-14.222222-27.151515-24.048485-44.864646-29.866667z" p-id="11458"></path></svg>