<?xml version="1.0" standalone="no"?><!DOCTYPE svg PUBLIC "-//W3C//DTD SVG 1.1//EN" "http://www.w3.org/Graphics/SVG/1.1/DTD/svg11.dtd"><svg t="1555046803442" class="icon" style="" viewBox="0 0 1024 1024" version="1.1" xmlns="http://www.w3.org/2000/svg" p-id="5798" xmlns:xlink="http://www.w3.org/1999/xlink" width="200" height="200"><defs><style type="text/css"></style></defs><path d="M0 550.4c32 0 57.6 16 73.6 41.6 16 28.8 22.4 64 22.4 105.6v86.4c0 41.6 12.8 73.6 38.4 96 22.4 22.4 51.2 35.2 83.2 35.2h108.8c12.8 0 25.6-9.6 25.6-25.6v-54.4c0-6.4-3.2-12.8-6.4-16-3.2-3.2-9.6-6.4-16-6.4H291.2c-54.4-3.2-54.4-48-54.4-73.6v-70.4c0-28.8-3.2-51.2-12.8-70.4-6.4-16-16-32-28.8-44.8-9.6-9.6-19.2-19.2-32-28.8-9.6-3.2-16-6.4-25.6-9.6 12.8-6.4 32-19.2 57.6-41.6 12.8-12.8 22.4-28.8 28.8-44.8 6.4-16 12.8-38.4 12.8-64V284.8c0-25.6 0-60.8 54.4-64h35.2c12.8 0 25.6-9.6 25.6-25.6v-64c0-6.4-3.2-12.8-6.4-16-3.2-3.2-9.6-6.4-16-6.4H220.8c-32 0-60.8 12.8-83.2 35.2-28.8 22.4-41.6 54.4-41.6 96v89.6c0 38.4-6.4 70.4-22.4 99.2-6.4 12.8-16 22.4-28.8 32-12.8 9.6-28.8 12.8-41.6 12.8v76.8z m1024 0c-32 0-57.6 16-73.6 41.6-16 25.6-22.4 60.8-22.4 102.4v86.4c0 41.6-12.8 73.6-38.4 96-22.4 22.4-51.2 35.2-83.2 35.2h-108.8c-12.8 0-25.6-9.6-25.6-25.6V832c0-6.4 3.2-12.8 6.4-16 3.2-3.2 9.6-6.4 16-6.4h35.2c54.4-3.2 54.4-48 54.4-73.6v-70.4c0-28.8 3.2-51.2 12.8-70.4 6.4-19.2 16-35.2 28.8-44.8 9.6-9.6 19.2-19.2 32-28.8 9.6-6.4 19.2-9.6 25.6-9.6-12.8-6.4-32-19.2-57.6-41.6-12.8-12.8-22.4-28.8-28.8-44.8-6.4-16-12.8-38.4-12.8-64V284.8c0-25.6 0-60.8-54.4-64h-35.2c-6.4 0-12.8-3.2-16-6.4-3.2-3.2-6.4-9.6-6.4-16v-64c0-6.4 3.2-12.8 6.4-16 3.2-3.2 9.6-6.4 16-6.4h108.8c32 0 60.8 12.8 83.2 35.2 25.6 22.4 35.2 54.4 38.4 96v89.6c0 38.4 6.4 70.4 22.4 99.2 6.4 12.8 16 22.4 28.8 32 12.8 9.6 25.6 12.8 41.6 12.8v73.6z m0 0" fill="#777777" p-id="5799"></path><path d="M329.6 448c-38.4 0-67.2 28.8-67.2 67.2 0 38.4 28.8 67.2 67.2 67.2 38.4 0 67.2-28.8 67.2-67.2 0-38.4-28.8-67.2-67.2-67.2zM521.6 448c-38.4 0-67.2 28.8-67.2 67.2 0 38.4 28.8 67.2 67.2 67.2 38.4 0 67.2-28.8 67.2-67.2 0-38.4-28.8-67.2-67.2-67.2zM713.6 448c-38.4 0-67.2 28.8-67.2 67.2 0 38.4 28.8 67.2 67.2 67.2 38.4 0 67.2-28.8 67.2-67.2 0-38.4-28.8-67.2-67.2-67.2z" fill="#777777" p-id="5800"></path></svg>