<?xml version="1.0" standalone="no"?><!DOCTYPE svg PUBLIC "-//W3C//DTD SVG 1.1//EN" "http://www.w3.org/Graphics/SVG/1.1/DTD/svg11.dtd"><svg t="1556126093706" class="icon" style="" viewBox="0 0 1024 1024" version="1.1" xmlns="http://www.w3.org/2000/svg" p-id="1504" xmlns:xlink="http://www.w3.org/1999/xlink" width="200" height="200"><defs><style type="text/css"></style></defs><path d="M511.1808 1018.0608C227.7376 1016.832 14.336 792.3712 6.144 532.6848-3.6864 224.6656 236.3392 14.336 490.9056 6.144c307.4048-9.8304 516.5056 229.9904 526.7456 481.4848 12.6976 306.3808-233.472 532.48-506.4704 530.432z" fill="#6D9900" p-id="1505"></path><path d="M272.5888 512c33.9968 20.0704 44.6464 50.5856 48.7424 85.1968 3.072 26.0096 1.6384 52.0192 2.8672 78.0288 1.8432 38.2976 12.0832 39.3216 39.5264 39.3216 11.8784 0 16.384 3.4816 14.5408 15.1552-0.4096 1.8432 0 3.6864 0 5.7344 0 33.5872 0 33.5872-33.792 32.1536-47.5136-2.048-73.1136-29.2864-77.6192-76.8-3.2768-35.4304 1.4336-71.0656-5.12-106.0864-5.3248-28.672-16.7936-39.936-45.8752-41.5744-7.3728-0.4096-10.24-2.6624-10.0352-9.8304 0.4096-7.168 0-14.1312 0-21.2992 0.2048-9.0112-2.048-19.0464 1.2288-26.624 3.8912-8.8064 15.36-2.6624 23.3472-5.12 14.336-4.3008 23.552-13.7216 27.8528-27.648 3.6864-11.6736 5.9392-23.7568 6.144-36.0448 0.6144-32.1536-2.048-64.512 4.9152-96.0512 9.216-42.5984 29.0816-59.8016 72.704-63.6928 36.0448-3.2768 36.0448-3.2768 36.0448 32.5632 0 19.6608 0 19.8656-18.8416 20.2752-28.8768 0.6144-32.768 9.4208-35.0208 36.864-2.048 25.8048 0 52.0192-2.8672 78.0288-3.6864 35.4304-13.9264 66.7648-48.7424 87.4496zM751.2064 512.2048c-38.0928-22.7328-46.6944-58.5728-49.3568-98.304-1.4336-23.1424-1.2288-46.2848-2.4576-69.4272-1.2288-26.624-8.6016-33.9968-35.2256-35.0208-19.0464-0.6144-19.0464-0.6144-19.0464-20.0704v-2.8672c0-30.9248 0-30.9248 31.744-30.1056 48.9472 1.4336 74.752 27.2384 79.4624 75.776 2.6624 27.4432 1.4336 54.8864 2.4576 82.1248 0.4096 13.312 2.8672 26.2144 6.9632 38.7072 6.5536 19.456 16.9984 27.4432 37.6832 27.648 11.0592 0 15.36 3.072 14.336 14.5408-1.024 12.288-0.6144 24.576-0.2048 36.864 0.2048 7.7824-2.4576 10.4448-10.4448 10.8544-28.2624 1.2288-40.7552 13.7216-45.6704 42.1888-4.096 23.1424-2.6624 46.2848-2.8672 69.2224 0 16.9984-1.024 33.9968-4.7104 50.5856-9.4208 41.3696-29.9008 58.7776-72.0896 62.2592-36.864 3.072-35.84 2.8672-37.2736-33.1776-0.6144-15.36 3.2768-19.8656 19.0464-19.6608 27.648 0.2048 34.4064-7.9872 35.6352-35.84 1.2288-30.72 0.4096-61.44 4.9152-91.9552 5.12-31.1296 17.6128-57.1392 47.104-74.3424z" fill="#FEFEFE" p-id="1506"></path><path d="M635.6992 545.9968c-19.2512 0.2048-35.6352-15.5648-35.6352-33.9968 0-17.8176 16.1792-33.9968 34.4064-34.2016 19.2512-0.2048 35.6352 15.5648 35.6352 34.2016 0 18.0224-15.9744 33.792-34.4064 33.9968zM545.792 511.7952c0 20.48-13.9264 34.4064-34.4064 34.4064-19.2512 0-33.792-14.5408-33.792-33.5872 0-19.456 15.1552-34.6112 34.6112-34.6112 19.2512 0 33.5872 14.336 33.5872 33.792zM389.12 545.9968c-20.0704 0-34.816-14.7456-34.6112-34.4064 0.2048-19.2512 14.9504-33.5872 33.9968-33.792 19.0464 0 35.2256 15.9744 35.0208 34.816-0.2048 18.2272-15.7696 33.3824-34.4064 33.3824z" fill="#FEFEFE" p-id="1507"></path></svg>