<?xml version="1.0" standalone="no"?><!DOCTYPE svg PUBLIC "-//W3C//DTD SVG 1.1//EN" "http://www.w3.org/Graphics/SVG/1.1/DTD/svg11.dtd"><svg t="1552296893058" class="icon" style="" viewBox="0 0 1024 1024" version="1.1" xmlns="http://www.w3.org/2000/svg" p-id="5407" xmlns:xlink="http://www.w3.org/1999/xlink" width="200" height="200"><defs><style type="text/css"></style></defs><path d="M225.834667 286.165333a42.666667 42.666667 0 1 1 60.330666-60.330666l256 256a42.666667 42.666667 0 0 1 1.28 59.008l-234.666666 256a42.666667 42.666667 0 1 1-62.890667-57.685334l207.061333-225.877333-227.114666-227.114667z" fill="#aaa" p-id="5408"></path><path d="M512 725.333333m42.666667 0l341.333333 0q42.666667 0 42.666667 42.666667l0 0q0 42.666667-42.666667 42.666667l-341.333333 0q-42.666667 0-42.666667-42.666667l0 0q0-42.666667 42.666667-42.666667Z" fill="#666" opacity=".3" p-id="5409"></path></svg>
