<?xml version="1.0" standalone="no"?><!DOCTYPE svg PUBLIC "-//W3C//DTD SVG 1.1//EN" "http://www.w3.org/Graphics/SVG/1.1/DTD/svg11.dtd"><svg t="1551423849692" class="icon" style="" viewBox="0 0 1024 1024" version="1.1" xmlns="http://www.w3.org/2000/svg" p-id="11030" xmlns:xlink="http://www.w3.org/1999/xlink" width="200" height="200"><defs><style type="text/css"></style></defs><path d="M750.933333 340.053333c-0.443733-18.3808-7.202133-33.826133-20.599466-47.240533-12.834133-12.834133-27.733333-19.3024-45.533867-19.7632L685.6704 238.933333c26.606933 0.682667 49.749333 10.683733 68.795733 29.7472 19.6096 19.626667 29.917867 43.349333 30.600534 70.519467l-34.133334 0.853333z m-477.866666 0l-34.133334-0.853333c0.6656-27.0336 10.615467-50.705067 29.525334-70.2976 20.0192-19.3536 43.6736-29.2864 70.741333-29.952l0.853333 34.116267c-18.500267 0.4608-34.013867 6.997333-47.445333 19.968-12.561067 13.021867-19.080533 28.535467-19.541333 47.018666z" p-id="11031"></path><path d="M938.666667 955.733333h-85.333334a17.066667 17.066667 0 1 1 0-34.133333h68.266667v-68.266667a17.066667 17.066667 0 1 1 34.133333 0v85.333334a17.066667 17.066667 0 0 1-17.066666 17.066666z m-170.666667 0h-85.333333a17.066667 17.066667 0 1 1 0-34.133333h85.333333a17.066667 17.066667 0 1 1 0 34.133333z m-170.666667 0h-85.333333a17.066667 17.066667 0 1 1 0-34.133333h85.333333a17.066667 17.066667 0 1 1 0 34.133333z m-170.666666 0h-85.333334a17.066667 17.066667 0 1 1 0-34.133333h85.333334a17.066667 17.066667 0 1 1 0 34.133333z m-170.666667 0h-85.333333a17.066667 17.066667 0 1 1 0-34.133333h85.333333a17.066667 17.066667 0 1 1 0 34.133333zM85.333333 870.4a17.066667 17.066667 0 0 1-17.066666-17.066667v-85.333333a17.066667 17.066667 0 1 1 34.133333 0v85.333333a17.066667 17.066667 0 0 1-17.066667 17.066667z m853.333334-85.333333a17.066667 17.066667 0 0 1-17.066667-17.066667v-85.333333a17.066667 17.066667 0 1 1 34.133333 0v85.333333a17.066667 17.066667 0 0 1-17.066666 17.066667z m-341.333334 0H426.666667a17.066667 17.066667 0 1 1 0-34.133334h170.666666a17.066667 17.066667 0 1 1 0 34.133334zM85.333333 699.733333a17.066667 17.066667 0 0 1-17.066666-17.066666v-85.333334a17.066667 17.066667 0 1 1 34.133333 0v85.333334a17.066667 17.066667 0 0 1-17.066667 17.066666z m853.333334-85.333333a17.066667 17.066667 0 0 1-17.066667-17.066667v-85.333333a17.066667 17.066667 0 1 1 34.133333 0v85.333333a17.066667 17.066667 0 0 1-17.066666 17.066667zM85.333333 529.066667a17.066667 17.066667 0 0 1-17.066666-17.066667v-85.333333a17.066667 17.066667 0 0 1 34.133333 0v85.333333a17.066667 17.066667 0 0 1-17.066667 17.066667z m853.333334-85.333334a17.066667 17.066667 0 0 1-17.066667-17.066666v-85.333334a17.066667 17.066667 0 1 1 34.133333 0v85.333334a17.066667 17.066667 0 0 1-17.066666 17.066666zM85.333333 358.4a17.066667 17.066667 0 0 1-17.066666-17.066667v-85.333333a17.066667 17.066667 0 0 1 34.133333 0v85.333333a17.066667 17.066667 0 0 1-17.066667 17.066667z m682.666667-1.706667a17.066667 17.066667 0 0 1-17.066667-17.066666V273.066667H273.066667v66.56a17.066667 17.066667 0 0 1-34.133334 0V256a17.066667 17.066667 0 0 1 17.066667-17.066667h512a17.066667 17.066667 0 0 1 17.066667 17.066667v83.626667a17.066667 17.066667 0 0 1-17.066667 17.066666zM938.666667 273.066667a17.066667 17.066667 0 0 1-17.066667-17.066667v-85.333333a17.066667 17.066667 0 1 1 34.133333 0v85.333333a17.066667 17.066667 0 0 1-17.066666 17.066667zM85.333333 187.733333a17.066667 17.066667 0 0 1-17.066666-17.066666V85.333333a17.066667 17.066667 0 0 1 17.066666-17.066666h85.333334a17.066667 17.066667 0 0 1 0 34.133333H102.4v68.266667a17.066667 17.066667 0 0 1-17.066667 17.066666z m768-85.333333h-85.333333a17.066667 17.066667 0 1 1 0-34.133333h85.333333a17.066667 17.066667 0 1 1 0 34.133333zM682.666667 102.4h-85.333334a17.066667 17.066667 0 1 1 0-34.133333h85.333334a17.066667 17.066667 0 1 1 0 34.133333zM512 102.4h-85.333333a17.066667 17.066667 0 0 1 0-34.133333h85.333333a17.066667 17.066667 0 1 1 0 34.133333zM341.333333 102.4h-85.333333a17.066667 17.066667 0 0 1 0-34.133333h85.333333a17.066667 17.066667 0 0 1 0 34.133333z" p-id="11032"></path><path d="M477.866667 256h68.266666v512h-68.266666z" p-id="11033"></path></svg>