<?xml version="1.0" standalone="no"?><!DOCTYPE svg PUBLIC "-//W3C//DTD SVG 1.1//EN" "http://www.w3.org/Graphics/SVG/1.1/DTD/svg11.dtd"><svg t="1551423866905" class="icon" style="" viewBox="0 0 1025 1024" version="1.1" xmlns="http://www.w3.org/2000/svg" p-id="11403" xmlns:xlink="http://www.w3.org/1999/xlink" width="200.1953125" height="200"><defs><style type="text/css"></style></defs><path d="M512.071215 0c-4.654545 0-9.309091 0-9.309091 0C218.834851 4.654545-4.583331 242.036364 0.071215 521.309091 4.72576 800.581818 232.798487 1024 512.071215 1024c4.654545 0 9.309091 0 9.309091 0 283.927273-4.654545 507.345455-242.036364 502.690909-521.309091C1019.416669 223.418182 791.343942 0 512.071215 0zM847.198487 833.163636c-83.781818 88.436364-200.145455 139.636364-325.818182 144.290909L512.071215 977.454545c-251.345455 0-460.8-204.8-465.454545-456.145455C41.962124 265.309091 246.762124 51.2 502.762124 46.545455c4.654545 0 9.309091 0 9.309091 0 251.345455 0 460.8 204.8 465.454545 456.145455C982.180305 623.709091 935.634851 744.727273 847.198487 833.163636z" p-id="11404"></path><path d="M782.034851 516.654545l-232.727273 0 0-279.272727c0-13.963636-9.309091-23.272727-23.272727-23.272727s-23.272727 9.309091-23.272727 23.272727l0 302.545455c0 13.963636 9.309091 23.272727 23.272727 23.272727l256 0c13.963636 0 23.272727-9.309091 23.272727-23.272727S795.998487 516.654545 782.034851 516.654545z" p-id="11405"></path></svg>